<svg xmlns="http://www.w3.org/2000/svg" xmlns:xlink="http://www.w3.org/1999/xlink" contentStyleType="text/css" data-diagram-type="DESCRIPTION" height="590px" preserveAspectRatio="none" style="width:477px;height:590px;background:#FFFFFF;" version="1.1" viewBox="0 0 477 590" width="477px" zoomAndPan="magnify"><defs/><g><!--cluster Kubernetes Cluster--><g class="cluster" data-entity="Kubernetes Cluster" data-source-line="4" data-uid="ent0003" id="cluster_Kubernetes Cluster"><path d="M8.5,285.59 L162.0576,285.59 A3.75,3.75 0 0 1 164.5576,288.09 L171.5576,307.8869 L383.5,307.8869 A2.5,2.5 0 0 1 386,310.3869 L386,580.98 A2.5,2.5 0 0 1 383.5,583.48 L8.5,583.48 A2.5,2.5 0 0 1 6,580.98 L6,288.09 A2.5,2.5 0 0 1 8.5,285.59" fill="none" style="stroke:#000000;stroke-width:1.5;"/><line style="stroke:#000000;stroke-width:1.5;" x1="6" x2="171.5576" y1="307.8869" y2="307.8869"/><text fill="#000000" font-family="sans-serif" font-size="14" font-weight="bold" lengthAdjust="spacing" textLength="152.5576" x="10" y="300.5851">Kubernetes Cluster</text></g><!--cluster CI/CD--><g class="cluster" data-entity="CI/CD" data-source-line="12" data-uid="ent0012" id="cluster_CI/CD"><path d="M139.5,6 L182.9922,6 A3.75,3.75 0 0 1 185.4922,8.5 L192.4922,28.2969 L467.5,28.2969 A2.5,2.5 0 0 1 470,30.7969 L470,208.09 A2.5,2.5 0 0 1 467.5,210.59 L139.5,210.59 A2.5,2.5 0 0 1 137,208.09 L137,8.5 A2.5,2.5 0 0 1 139.5,6" fill="none" style="stroke:#000000;stroke-width:1.5;"/><line style="stroke:#000000;stroke-width:1.5;" x1="137" x2="192.4922" y1="28.2969" y2="28.2969"/><text fill="#000000" font-family="sans-serif" font-size="14" font-weight="bold" lengthAdjust="spacing" textLength="42.4922" x="141" y="20.9951">CI/CD</text></g><!--entity React UI--><g class="entity" data-entity="React UI" data-source-line="5" data-uid="ent0004" id="entity_React UI"><rect fill="#F1F1F1" height="36.2969" rx="2.5" ry="2.5" style="stroke:#181818;stroke-width:0.5;" width="78.9326" x="64.53" y="328.59"/><text fill="#000000" font-family="sans-serif" font-size="14" lengthAdjust="spacing" textLength="58.9326" x="74.53" y="351.5851">React UI</text></g><!--entity Go API Service--><g class="entity" data-entity="Go API Service" data-source-line="5" data-uid="ent0005" id="entity_Go API Service"><rect fill="#F1F1F1" height="36.2969" rx="2.5" ry="2.5" style="stroke:#181818;stroke-width:0.5;" width="122.2041" x="56.9" y="425.89"/><text fill="#000000" font-family="sans-serif" font-size="14" lengthAdjust="spacing" textLength="102.2041" x="66.9" y="448.8851">Go API Service</text></g><!--entity LLM Provider (OpenAI)--><g class="entity" data-entity="LLM Provider (OpenAI)" data-source-line="6" data-uid="ent0007" id="entity_LLM Provider (OpenAI)"><rect fill="#F1F1F1" height="36.2969" rx="2.5" ry="2.5" style="stroke:#181818;stroke-width:0.5;" width="176.7959" x="29.6" y="523.18"/><text fill="#000000" font-family="sans-serif" font-size="14" lengthAdjust="spacing" textLength="156.7959" x="39.6" y="546.1751">LLM Provider (OpenAI)</text></g><!--entity Data Storage--><g class="entity" data-entity="Data Storage" data-source-line="7" data-uid="ent0009" id="entity_Data Storage"><rect fill="#F1F1F1" height="36.2969" rx="2.5" ry="2.5" style="stroke:#181818;stroke-width:0.5;" width="112.6543" x="241.67" y="523.18"/><text fill="#000000" font-family="sans-serif" font-size="14" lengthAdjust="spacing" textLength="92.6543" x="251.67" y="546.1751">Data Storage</text></g><!--entity GitHub Actions--><g class="entity" data-entity="GitHub Actions" data-source-line="13" data-uid="ent0013" id="entity_GitHub Actions"><rect fill="#F1F1F1" height="36.2969" rx="2.5" ry="2.5" style="stroke:#181818;stroke-width:0.5;" width="124.3506" x="240.82" y="41"/><text fill="#000000" font-family="sans-serif" font-size="14" lengthAdjust="spacing" textLength="104.3506" x="250.82" y="63.9951">GitHub Actions</text></g><!--entity Docker Registry--><g class="entity" data-entity="Docker Registry" data-source-line="13" data-uid="ent0014" id="entity_Docker Registry"><rect fill="#F1F1F1" height="36.2969" rx="2.5" ry="2.5" style="stroke:#181818;stroke-width:0.5;" width="131.9111" x="153.04" y="158.29"/><text fill="#000000" font-family="sans-serif" font-size="14" lengthAdjust="spacing" textLength="111.9111" x="163.04" y="181.2851">Docker Registry</text></g><!--entity Terraform Cloud--><g class="entity" data-entity="Terraform Cloud" data-source-line="14" data-uid="ent0016" id="entity_Terraform Cloud"><rect fill="#F1F1F1" height="36.2969" rx="2.5" ry="2.5" style="stroke:#181818;stroke-width:0.5;" width="134.584" x="319.71" y="158.29"/><text fill="#000000" font-family="sans-serif" font-size="14" lengthAdjust="spacing" textLength="114.584" x="329.71" y="181.2851">Terraform Cloud</text></g><!--entity Developer--><g class="entity" data-entity="Developer" data-source-line="2" data-uid="ent0002" id="entity_Developer"><ellipse cx="82.0015" cy="146.79" fill="#F1F1F1" rx="8" ry="8" style="stroke:#181818;stroke-width:0.5;"/><path d="M82.0015,154.79 L82.0015,181.79 M69.0015,162.79 L95.0015,162.79 M82.0015,181.79 L69.0015,196.79 M82.0015,181.79 L95.0015,196.79" fill="none" style="stroke:#181818;stroke-width:0.5;"/><text fill="#000000" font-family="sans-serif" font-size="14" lengthAdjust="spacing" textLength="72.0029" x="46" y="211.2851">Developer</text></g><!--link React UI to Go API Service--><g class="link" data-entity-1="React UI" data-entity-2="Go API Service" data-source-line="5" data-uid="lnk6" id="link_React UI_Go API Service"><path d="M106.57,365.22 C109.09,382.41 112.0582,402.5737 114.5782,419.7337" fill="none" id="React UI-to-Go API Service" style="stroke:#181818;stroke-width:1;"/><polygon fill="#181818" points="115.45,425.67,118.0999,416.1843,114.7235,420.7231,110.1848,417.3467,115.45,425.67" style="stroke:#181818;stroke-width:1;"/></g><!--link Go API Service to LLM Provider (OpenAI)--><g class="link" data-entity-1="Go API Service" data-entity-2="LLM Provider (OpenAI)" data-source-line="6" data-uid="lnk8" id="link_Go API Service_LLM Provider (OpenAI)"><path d="M118,462.51 C118,479.71 118,499.81 118,516.96" fill="none" id="Go API Service-to-LLM Provider (OpenAI)" style="stroke:#181818;stroke-width:1;"/><polygon fill="#181818" points="118,522.96,122,513.96,118,517.96,114,513.96,118,522.96" style="stroke:#181818;stroke-width:1;"/></g><!--link Go API Service to Data Storage--><g class="link" data-entity-1="Go API Service" data-entity-2="Data Storage" data-source-line="7" data-uid="lnk10" id="link_Go API Service_Data Storage"><path d="M151.01,462.51 C183.39,479.65 227.1774,502.8324 259.5874,519.9924" fill="none" id="Go API Service-to-Data Storage" style="stroke:#181818;stroke-width:1;"/><polygon fill="#181818" points="264.89,522.8,258.8078,515.0536,260.4712,520.4604,255.0644,522.1237,264.89,522.8" style="stroke:#181818;stroke-width:1;"/></g><!--link Developer to React UI--><g class="link" data-entity-1="Developer" data-entity-2="React UI" data-source-line="10" data-uid="lnk11" id="link_Developer_React UI"><path d="M86.88,214.79 C91.52,250.23 97.4914,295.9707 100.9714,322.5607" fill="none" id="Developer-to-React UI" style="stroke:#181818;stroke-width:1;"/><polygon fill="#181818" points="101.75,328.51,104.5483,319.067,101.1012,323.5523,96.6159,320.1052,101.75,328.51" style="stroke:#181818;stroke-width:1;"/><text fill="#000000" font-family="sans-serif" font-size="13" lengthAdjust="spacing" textLength="137.1094" x="94" y="257.6569">interacts via browser</text></g><!--link GitHub Actions to Docker Registry--><g class="link" data-entity-1="GitHub Actions" data-entity-2="Docker Registry" data-source-line="13" data-uid="lnk15" id="link_GitHub Actions_Docker Registry"><path d="M290.24,77.66 C274.36,99.45 250.9442,131.6014 235.1342,153.2914" fill="none" id="GitHub Actions-to-Docker Registry" style="stroke:#181818;stroke-width:1;"/><polygon fill="#181818" points="231.6,158.14,240.1337,153.2232,234.5452,154.0995,233.6689,148.5109,231.6,158.14" style="stroke:#181818;stroke-width:1;"/></g><!--link GitHub Actions to Terraform Cloud--><g class="link" data-entity-1="GitHub Actions" data-entity-2="Terraform Cloud" data-source-line="14" data-uid="lnk17" id="link_GitHub Actions_Terraform Cloud"><path d="M315.76,77.66 C331.64,99.45 355.0558,131.6014 370.8658,153.2914" fill="none" id="GitHub Actions-to-Terraform Cloud" style="stroke:#181818;stroke-width:1;"/><polygon fill="#181818" points="374.4,158.14,372.3311,148.5109,371.4548,154.0995,365.8663,153.2232,374.4,158.14" style="stroke:#181818;stroke-width:1;"/></g><!--link Terraform Cloud to Kubernetes Cluster--><g class="link" data-entity-1="Terraform Cloud" data-entity-2="Kubernetes Cluster" data-source-line="15" data-uid="lnk18" id="link_Terraform Cloud_Kubernetes Cluster"><path d="M386.07,194.82 C384.94,215.985 383.288,269.1804 381.5755,301.1892" fill="none" id="Terraform Cloud-to-Kubernetes Cluster" style="stroke:#181818;stroke-width:1;"/><polygon fill="#181818" points="381.255,307.1806,385.7301,298.4072,381.5221,302.1878,377.7415,297.9798,381.255,307.1806" style="stroke:#181818;stroke-width:1;"/></g><!--SRC=[TP0zQyD0343t-nKYKpk4xXq2neRKD2KXRgVWGRwevh1zEdIoIoZzxxtM_Q0f6IKzIK-AdVC11GUmF0JsvBNIKqyWP1LzsvD1gonGq4Gz1n9Z0jeEMuB5_TYGU5AAaFTZL985l1g0mvvI4poLDIoNApYi6R9T2HN9v2pL7yHPQkOscmVO2K_kI09Nsq0-AwylumKgGfNaaanjtepvSPphlnQtu7ooIs64oI4qmY_npobvUPCNN_PhftTZ0vbLnpv-BsFRfS5xQbrKETKNmKSImMUM8Vs4n-CdU9wRoV_lIrUy0m00]--></g></svg>
